<?xml version="1.0" encoding="UTF-8" standalone="no"?>
<svg
   xmlns:dc="http://purl.org/dc/elements/1.1/"
   xmlns:cc="http://creativecommons.org/ns#"
   xmlns:rdf="http://www.w3.org/1999/02/22-rdf-syntax-ns#"
   xmlns:svg="http://www.w3.org/2000/svg"
   xmlns="http://www.w3.org/2000/svg"
   xmlns:sodipodi="http://sodipodi.sourceforge.net/DTD/sodipodi-0.dtd"
   xmlns:inkscape="http://www.inkscape.org/namespaces/inkscape"
   height="256"
   viewBox="0 0 256 256"
   width="256"
   version="1.1"
   id="svg6"
   sodipodi:docname="convertimage_256x256.svg"
   style="fill:#000000"
   inkscape:version="0.92.4 (5da689c313, 2019-01-14)"
   inkscape:export-filename="/home/raphael/Google Drive/Development/Vitomu/convertimage.png"
   inkscape:export-xdpi="96"
   inkscape:export-ydpi="96">
  <metadata
     id="metadata12">
    <rdf:RDF>
      <cc:Work
         rdf:about="">
        <dc:format>image/svg+xml</dc:format>
        <dc:type
           rdf:resource="http://purl.org/dc/dcmitype/StillImage" />
        <dc:title></dc:title>
      </cc:Work>
    </rdf:RDF>
  </metadata>
  <defs
     id="defs10" />
  <sodipodi:namedview
     pagecolor="#ffffff"
     bordercolor="#666666"
     borderopacity="1"
     objecttolerance="10"
     gridtolerance="10"
     guidetolerance="10"
     inkscape:pageopacity="0"
     inkscape:pageshadow="2"
     inkscape:window-width="1600"
     inkscape:window-height="836"
     id="namedview8"
     showgrid="false"
     inkscape:zoom="0.70710678"
     inkscape:cx="404.07809"
     inkscape:cy="443.45668"
     inkscape:window-x="0"
     inkscape:window-y="27"
     inkscape:window-maximized="1"
     inkscape:current-layer="svg6" />
  <path
     d="m -132.53624,294.1029 v 53.0452 c -78.15317,0 -141.4537,63.3005 -141.4537,141.4537 0,25.2254 6.96974,48.6828 18.54508,69.1036 a 134.40572,134.40572 0 0 1 -6.76877,-41.3379 134.40572,134.40572 0 0 1 97.87103,-128.9866 c 0.6346,-0.1999 1.2943,-0.3307 1.93394,-0.5181 a 134.40572,134.40572 0 0 1 6.73424,-1.7611 c 3.78811,-0.8452 7.64115,-1.5065 11.56909,-1.9339 a 134.40572,134.40572 0 0 1 0.65617,-0.1061 c 3.58551,-0.3677 7.23159,-0.5516 10.91294,-0.5516 h 23.27631 65.304916 l -37.22829,-37.1247 -0.0354,0.035 z m 122.286996,124.2554 v 0.4491 a 134.40572,134.40572 0 0 1 7.0105203,42.0977 134.40572,134.40572 0 0 1 -97.0767363,128.7796 c -1.84376,0.5888 -3.74334,1.0309 -5.62915,1.5189 a 134.40572,134.40572 0 0 1 -3.21171,0.8293 c -3.81035,0.8593 -7.68563,1.5312 -11.63817,1.9685 -0.30306,0.035 -0.59393,0.1061 -0.89788,0.1414 a 134.40572,134.40572 0 0 1 -0.31084,0.071 v -0.071 c -3.46433,0.3431 -6.97972,0.5517 -10.53305,0.5517 h -43.37545 -3.07358 -5.90541 -36.12318 l 17.75077,17.6817 3.31532,3.3153 67.41153,67.4116 v -53.0452 c 78.153166,0 141.4536963,-63.3005 141.4536963,-141.4537 0,-25.6904 -7.19637,-49.5668 -19.1667003,-70.2434 z"
     id="path2"
     inkscape:connector-curvature="0"
     style="stroke-width:17.6817112" />
  <path
     inkscape:connector-curvature="0"
     d="m -162.43313,432.2666 v 112.6703 l 88.526556,-56.3351 z"
     id="path2-1"
     style="stroke-width:8.04787445" />
  <path
     d="m 481.28,-286.72 h 61.44 v 61.44 h -61.44 z"
     id="path4"
     inkscape:connector-curvature="0"
     style="fill:none;stroke-width:2.55999994" />
  <path
     d="M 128.00022,2.01e-5 V 34.908745 c -51.432174,0 -93.089914,41.657743 -93.089914,93.089925 0,16.60072 4.58678,32.03793 12.20443,45.47676 a 88.451684,88.451684 0 0 1 -4.45446,-27.20426 88.451684,88.451684 0 0 1 64.408314,-84.885441 c 0.41775,-0.131493 0.85178,-0.217598 1.27278,-0.340954 a 88.451684,88.451684 0 0 1 4.43177,-1.158967 c 2.49284,-0.556198 5.02861,-0.991405 7.61349,-1.272656 a 88.451684,88.451684 0 0 1 0.43169,-0.06978 c 2.35961,-0.24086 4.75912,-0.36304 7.18178,-0.36304 h 15.31806 42.97683 l -24.49976,-24.431569 -0.0233,0.02327 z M 208.4767,81.771842 v 0.295557 a 88.451684,88.451684 0 0 1 4.61353,27.704261 88.451684,88.451684 0 0 1 -63.88563,84.74917 c -1.21343,0.38749 -2.46353,0.6784 -3.70452,0.99955 a 88.451684,88.451684 0 0 1 -2.11361,0.54575 c -2.50762,0.56552 -5.05792,1.0077 -7.65909,1.29535 -0.19898,0.0233 -0.39098,0.0699 -0.59112,0.0931 a 88.451684,88.451684 0 0 1 -0.2048,0.0465 v -0.0465 c -2.27976,0.22574 -4.59329,0.3642 -6.93172,0.3642 h -28.545194 -2.02261 -3.88639 -23.77248 l 11.68174,11.63624 2.18179,2.18179 44.363144,44.36317 v -34.90872 c 51.4322,0 93.08995,-41.65773 93.08995,-93.08991 0,-16.90676 -4.73597,-32.619526 -12.61347,-46.226825 z M 108.31858,90.93084 v 74.13565 l 58.27217,-37.06782 z"
     id="path2-5"
     inkscape:connector-curvature="0"
     style="fill:#ffffff;stroke-width:11.63624001" />
  <path
     inkscape:connector-curvature="0"
     style="fill:none;stroke-width:2.55999994"
     d="m 481.28,-286.72 h 61.44 v 61.44 h -61.44 z"
     id="path4-4" />
  <path
     d="m -707.79307,-102.48232 h 24 v 24 h -24 z"
     id="path4-5"
     inkscape:connector-curvature="0"
     style="fill:none" />
  <path
     style="fill:#000000;fill-opacity:1;stroke-width:16"
     d="m -678.82241,-273.51186 a 200,200 0 0 0 -200,200 200,200 0 0 0 200,200 200,200 0 0 0 200,-200 200,200 0 0 0 -200,-200 z m 0,41.87304 41.7207,41.72071 0.0293,-0.0293 30.26563,30.18359 h -53.0918 -18.92383 c -2.99288,0 -5.95807,0.14972 -8.87305,0.44727 a 109.27036,109.27036 0 0 0 -0.5332,0.0859 c -3.19328,0.34745 -6.32472,0.88516 -9.4043,1.57227 a 109.27036,109.27036 0 0 0 -5.4746,1.43164 c -0.5201,0.15239 -1.0562,0.25943 -1.57227,0.42187 a 109.27036,109.27036 0 0 0 -79.56836,104.86524 109.27036,109.27036 0 0 0 5.50195,33.60742 c -9.41059,-16.60189 -15.07617,-35.67364 -15.07617,-56.18164 0,-63.53766 51.46235,-115 115,-115 z m 99.41797,101.02149 c 9.73161,16.81002 15.58203,36.22135 15.58203,57.10742 0,63.53765 -51.46233,115 -115,115 v 43.125 l -54.80469,-54.80469 -2.69531,-2.69531 -14.43164,-14.375 h 29.36719 4.80078 2.5 35.26367 c 2.88881,0 5.74615,-0.17035 8.5625,-0.44922 v 0.0566 a 109.27036,109.27036 0 0 0 0.25391,-0.0566 c 0.24725,-0.0288 0.48466,-0.0864 0.73047,-0.11523 3.2134,-0.35535 6.3631,-0.90293 9.46093,-1.60156 a 109.27036,109.27036 0 0 0 2.61133,-0.67383 c 1.53308,-0.39674 3.07714,-0.75569 4.57617,-1.23438 a 109.27036,109.27036 0 0 0 78.92188,-104.69726 109.27036,109.27036 0 0 0 -5.69922,-34.22461 z m -123.73242,11.31055 71.98828,45.79297 -71.98828,45.79297 z"
     id="path4573-4"
     inkscape:connector-curvature="0" />
  <path
     inkscape:connector-curvature="0"
     style="fill:none"
     d="m -707.79307,-102.48232 h 24 v 24 h -24 z"
     id="path4-4-3" />
</svg>
