<?xml version="1.0" encoding="UTF-8" standalone="no"?>
<svg
   xmlns:dc="http://purl.org/dc/elements/1.1/"
   xmlns:cc="http://creativecommons.org/ns#"
   xmlns:rdf="http://www.w3.org/1999/02/22-rdf-syntax-ns#"
   xmlns:svg="http://www.w3.org/2000/svg"
   xmlns="http://www.w3.org/2000/svg"
   xmlns:xlink="http://www.w3.org/1999/xlink"
   xmlns:sodipodi="http://sodipodi.sourceforge.net/DTD/sodipodi-0.dtd"
   xmlns:inkscape="http://www.inkscape.org/namespaces/inkscape"
   height="256"
   viewBox="0 0 255.99999 256.00001"
   width="256"
   version="1.1"
   id="svg6"
   sodipodi:docname="logo_image_shadow_256x256.svg"
   style="fill:#000000"
   inkscape:version="1.0 (4035a4fb49, 2020-05-01)"
   inkscape:export-filename="/home/raphael/Google Drive/Development/Vitomu/Vitomu.png"
   inkscape:export-xdpi="96"
   inkscape:export-ydpi="96">
  <metadata
     id="metadata12">
    <rdf:RDF>
      <cc:Work
         rdf:about="">
        <dc:format>image/svg+xml</dc:format>
        <dc:type
           rdf:resource="http://purl.org/dc/dcmitype/StillImage" />
        <dc:title></dc:title>
      </cc:Work>
    </rdf:RDF>
  </metadata>
  <defs
     id="defs10">
    <linearGradient
       inkscape:collect="always"
       id="linearGradient1172">
      <stop
         style="stop-color:#000000;stop-opacity:0.26274511"
         offset="0"
         id="stop1168" />
      <stop
         style="stop-color:#000000;stop-opacity:0"
         offset="1"
         id="stop1170" />
    </linearGradient>
    <linearGradient
       gradientTransform="translate(-1.90427,-5.245)"
       inkscape:collect="always"
       xlink:href="#linearGradient1172"
       id="linearGradient1174"
       x1="310.31488"
       y1="331.57355"
       x2="855.87323"
       y2="858.64874"
       gradientUnits="userSpaceOnUse" />
    <filter
       style="color-interpolation-filters:sRGB"
       inkscape:label="Drop Shadow"
       id="filter1342">
      <feFlood
         flood-opacity="0.101961"
         flood-color="rgb(0,0,0)"
         result="flood"
         id="feFlood1332" />
      <feComposite
         in="flood"
         in2="SourceGraphic"
         operator="in"
         result="composite1"
         id="feComposite1334" />
      <feGaussianBlur
         in="composite1"
         stdDeviation="10"
         result="blur"
         id="feGaussianBlur1336" />
      <feOffset
         dx="0"
         dy="0"
         result="offset"
         id="feOffset1338" />
      <feComposite
         in="SourceGraphic"
         in2="offset"
         operator="over"
         result="fbSourceGraphic"
         id="feComposite1340" />
      <feColorMatrix
         result="fbSourceGraphicAlpha"
         in="fbSourceGraphic"
         values="0 0 0 -1 0 0 0 0 -1 0 0 0 0 -1 0 0 0 0 1 0"
         id="feColorMatrix1368" />
      <feFlood
         id="feFlood1370"
         flood-opacity="0.301961"
         flood-color="rgb(0,0,0)"
         result="flood"
         in="fbSourceGraphic" />
      <feComposite
         in2="fbSourceGraphic"
         id="feComposite1372"
         in="flood"
         operator="in"
         result="composite1" />
      <feGaussianBlur
         id="feGaussianBlur1374"
         in="composite1"
         stdDeviation="10"
         result="blur" />
      <feOffset
         id="feOffset1376"
         dx="0"
         dy="0"
         result="offset" />
      <feComposite
         in2="offset"
         id="feComposite1378"
         in="fbSourceGraphic"
         operator="over"
         result="composite2" />
    </filter>
  </defs>
  <sodipodi:namedview
     units="px"
     pagecolor="#ffffff"
     bordercolor="#666666"
     borderopacity="1"
     objecttolerance="10"
     gridtolerance="10"
     guidetolerance="10"
     inkscape:pageopacity="0"
     inkscape:pageshadow="2"
     inkscape:window-width="1920"
     inkscape:window-height="1052"
     id="namedview8"
     showgrid="false"
     inkscape:zoom="1"
     inkscape:cx="-180.76568"
     inkscape:cy="236.06602"
     inkscape:window-x="1600"
     inkscape:window-y="0"
     inkscape:window-maximized="1"
     inkscape:current-layer="svg6"
     inkscape:document-rotation="0" />
  <g
     id="g1099"
     transform="matrix(0.25651303,0,0,0.25651303,-2.000002,-2.000002)">
    <path
       d="m 653.32524,251.90987 -25.36459,24.57653 v -5.89144 H 415.81179 v 7.46186 h -41.73688 v 33.61641 h -6.44537 v 14.65531 H 308.4106 v 62.09137 h -48.76855 v 76.51254 h -21.9249 v 118.40743 h 2.36039 v 19.68825 h 10.36855 v 25.1514 h 4.10402 v 6.57671 h 3.6662 l -4.54754,4.40668 L 597.7211,998 A 499,499 0 0 0 998,611.39607 Z"
       style="fill:url(#linearGradient1174);fill-opacity:1;stroke-width:2.495"
       id="path4" />
    <path
       style="fill:#ffffff;stroke-width:35.8656"
       inkscape:connector-curvature="0"
       id="path2-5"
       d="m 512.0007,117.47295 v 107.59716 c -158.52644,0 -286.9257,128.39927 -286.9257,286.92572 0,51.16746 14.13757,98.74869 37.61702,140.1704 A 272.62955,272.62955 0 0 1 248.96228,568.31612 272.62955,272.62955 0 0 1 447.48437,306.67859 c 1.28759,-0.40529 2.62538,-0.67068 3.923,-1.0509 a 272.62955,272.62955 0 0 1 13.65978,-3.57221 c 7.68356,-1.71434 15.4994,-3.05576 23.46662,-3.92264 a 272.62955,272.62955 0 0 1 1.33059,-0.21507 c 7.27288,-0.74239 14.66876,-1.11898 22.13599,-1.11898 h 47.21398 132.465 l -75.51418,-75.30402 -0.0718,0.0717 z m 248.04801,252.04059 v 0.91098 a 272.62955,272.62955 0 0 1 14.22003,85.39125 272.62955,272.62955 0 0 1 -196.911,261.21749 c -3.74007,1.19434 -7.59318,2.09101 -11.41821,3.08088 a 272.62955,272.62955 0 0 1 -6.51467,1.68211 c -7.72909,1.74308 -15.58973,3.10599 -23.60716,3.99259 -0.6133,0.0718 -1.20509,0.21532 -1.82198,0.28707 a 272.62955,272.62955 0 0 1 -0.63123,0.14347 v -0.14347 c -7.0268,0.69579 -14.15765,1.12256 -21.36524,1.12256 h -87.98325 -6.23416 -11.9788 -73.27256 l 36.00595,35.86572 6.72482,6.7248 136.738,136.73807 V 798.92989 c 158.52649,0 286.92575,-128.39924 286.92575,-286.92567 0,-52.11075 -14.59735,-100.5413 -38.87771,-142.4823 z M 451.33712,397.74379 V 626.24784 L 630.9461,511.99583 Z" />
  </g>
</svg>
